<?xml version="1.0" encoding="utf-8"?>
<!-- Generator: Adobe Illustrator 19.0.0, SVG Export Plug-In . SVG Version: 6.00 Build 0)  -->
<svg version="1.1" id="Capa_1" xmlns="http://www.w3.org/2000/svg" xmlns:xlink="http://www.w3.org/1999/xlink" x="0px" y="0px"
	 viewBox="0 0 256 256" style="enable-background:new 0 0 256 256;" xml:space="preserve">
<style type="text/css">
	.st0{fill:#2E58A6;stroke:#3A3A3A;stroke-width:6;stroke-miterlimit:10;}
	.st1{fill:#45B5D3;}
	.st2{fill:#A73838;}
	.st3{fill:#E5E5E5;}
	.st4{fill:#3A3A3A;}
</style>
<g id="XMLID_37789_">
	<path id="XMLID_37860_" class="st0" d="M210.8,226.5H51.2c-6.6,0-12-5.4-12-12V54.9c0-6.6,5.4-12,12-12h159.6c6.6,0,12,5.4,12,12
		v159.6C222.8,221.1,217.4,226.5,210.8,226.5z"/>
	<g id="XMLID_37850_">
		<path id="XMLID_37856_" class="st1" d="M180.2,223.3c0-1.4-1.1-2.5-2.5-2.5c-4.1,0-7.5-3.4-7.4-7.5c0-1.4-1.1-2.5-2.5-2.5
			c-1.4,0-2.5,1.1-2.5,2.5c0,4.1-3.4,7.5-7.5,7.4c-1.4,0-2.5,1.1-2.5,2.5c0,1.4,1.1,2.5,2.5,2.5c4.1,0,7.5,3.4,7.4,7.5
			c0,1.4,1.1,2.5,2.5,2.5c1.4,0,2.5-1.1,2.5-2.5c0-4.1,3.4-7.5,7.5-7.4C179.1,225.8,180.2,224.7,180.2,223.3z M170.3,223.2
			c-1,0.7-1.8,1.6-2.5,2.5c-0.7-1-1.6-1.8-2.5-2.5c1-0.7,1.8-1.6,2.5-2.5C168.5,221.7,169.4,222.5,170.3,223.2z"/>
	</g>
	<g id="XMLID_37841_">
		<path id="XMLID_37847_" class="st1" d="M50.2,71.2c0-2.2-1.8-4.1-4-4.1C39.4,67.1,34,61.6,34,54.8c0-2.2-1.8-4.1-4-4.1
			c-2.2,0-4.1,1.8-4.1,4c-0.1,6.8-5.6,12.2-12.3,12.1c-2.2,0-4.1,1.8-4.1,4c0,2.2,1.8,4.1,4,4.1c6.8,0.1,12.2,5.6,12.1,12.3
			c0,2.2,1.8,4.1,4,4.1c2.2,0,4.1-1.8,4.1-4c0.1-6.8,5.6-12.2,12.3-12.2C48.3,75.3,50.2,73.5,50.2,71.2z M34,71.1
			c-1.6,1.2-3,2.5-4.2,4.1c-1.2-1.6-2.5-3-4.1-4.2c1.6-1.2,3-2.5,4.2-4.1C31,68.5,32.4,69.9,34,71.1z"/>
	</g>
	<g id="XMLID_37832_">
		<path id="XMLID_37838_" class="st1" d="M207,35.9c0-1.7-1.4-3.1-3.1-3.1c-5.1,0-9.3-4.2-9.2-9.4c0-1.7-1.4-3.1-3.1-3.1
			c-1.7,0-3.1,1.4-3.1,3.1c0,5.1-4.2,9.3-9.4,9.2c-1.7,0-3.1,1.4-3.1,3.1c0,1.7,1.4,3.1,3.1,3.1c5.1,0,9.3,4.3,9.2,9.4
			c0,1.7,1.4,3.1,3.1,3.1c1.7,0,3.1-1.4,3.1-3.1c0-5.1,4.3-9.3,9.4-9.2C205.6,39,207,37.6,207,35.9z M194.7,35.8
			c-1.2,0.9-2.3,1.9-3.2,3.1c-0.9-1.2-1.9-2.3-3.1-3.2c1.2-0.9,2.3-1.9,3.2-3.1C192.4,33.9,193.5,34.9,194.7,35.8z"/>
	</g>
	<path id="XMLID_37880_" class="st2" d="M80.5,65.4c9.1,0,14.7,5.6,14.9,13.5c0,7.7-5.6,13.4-15,13.4c-8.9,0-14.9-5.7-14.9-13.4
		C65.4,71,71.3,65.4,80.5,65.4"/>
	<path id="XMLID_37879_" class="st2" d="M160.8,101.2c17.6,0,29.8,10.3,29.8,35.6v53.8h-23.8v-50c0-11.1-6.9-18.6-16.5-18.6
		c-7.4,0-13.5,5.1-15.4,10c-0.7,1.8-0.9,4.2-0.9,6.7v51.9h-23.8v-86.3h21.3l1.8,9.4C136.7,108,146.4,101.2,160.8,101.2"/>
	<polyline id="XMLID_37878_" class="st2" points="92.2,104.3 92.2,190.6 68.3,190.6 68.3,104.3 92.2,104.3 	"/>
	<path id="XMLID_37877_" class="st3" d="M80.5,59.5c-12.2,0-21,8.2-21,19.4c0,11.2,8.8,19.3,20.8,19.3c12.3,0,21-7.9,21-19.3
		c0,0,0-0.1,0-0.1C101,67.4,92.4,59.5,80.5,59.5L80.5,59.5z"/>
	<path id="XMLID_37876_" class="st3" d="M160.8,95.3c-10.1,0-18.2,2.9-23.9,6.6c-0.9-2.2-3-3.6-5.5-3.6h-21.3
		c-3.3,0-5.9,2.7-5.9,5.9v86.3c0,3.3,2.7,5.9,5.9,5.9H134c3.3,0,5.9-2.7,5.9-5.9v-51.9c0-3,0.3-4.1,0.5-4.5c1-2.6,4.8-6.3,9.9-6.3
		c6.5,0,10.6,5,10.6,12.7v50c0,3.3,2.7,5.9,5.9,5.9h23.8c3.3,0,5.9-2.7,5.9-5.9v-53.8C196.5,110.4,183.5,95.3,160.8,95.3L160.8,95.3
		z"/>
	<path id="XMLID_37875_" class="st3" d="M92.2,98.3H68.3c-3.3,0-5.9,2.7-5.9,5.9v86.3c0,3.3,2.7,5.9,5.9,5.9h23.9
		c3.3,0,5.9-2.7,5.9-5.9v-86.3C98.1,101,95.5,98.3,92.2,98.3L92.2,98.3z"/>
	<path id="XMLID_37859_" class="st4" d="M80.5,65.4c9.1,0,14.7,5.6,14.9,13.5c0,7.7-5.6,13.4-15,13.4c-8.9,0-14.9-5.7-14.9-13.4
		C65.4,71,71.3,65.4,80.5,65.4 M160.8,101.2c17.6,0,29.8,10.3,29.8,35.6v53.8h-23.8v-50c0-11.1-6.9-18.6-16.5-18.6
		c-7.4,0-13.5,5.1-15.4,10c-0.7,1.8-0.9,4.2-0.9,6.7v51.9h-23.8v-86.3h21.3l1.8,9.4C136.7,108,146.4,101.2,160.8,101.2 M92.2,104.3
		v86.3H68.3v-86.3H92.2 M80.5,59.5c-12.2,0-21,8.2-21,19.4c0,11.2,8.8,19.3,20.8,19.3c12.3,0,21-7.9,21-19.3c0,0,0-0.1,0-0.1
		C101,67.4,92.4,59.5,80.5,59.5L80.5,59.5z M160.8,95.3c-10.1,0-18.2,2.9-23.9,6.6c-0.9-2.2-3-3.6-5.5-3.6h-21.3
		c-3.3,0-5.9,2.7-5.9,5.9v86.3c0,3.3,2.7,5.9,5.9,5.9H134c3.3,0,5.9-2.7,5.9-5.9v-51.9c0-3,0.3-4.1,0.5-4.5c1-2.6,4.8-6.3,9.9-6.3
		c6.5,0,10.6,5,10.6,12.7v50c0,3.3,2.7,5.9,5.9,5.9h23.8c3.3,0,5.9-2.7,5.9-5.9v-53.8C196.5,110.4,183.5,95.3,160.8,95.3L160.8,95.3
		z M92.2,98.3H68.3c-3.3,0-5.9,2.7-5.9,5.9v86.3c0,3.3,2.7,5.9,5.9,5.9h23.9c3.3,0,5.9-2.7,5.9-5.9v-86.3
		C98.1,101,95.5,98.3,92.2,98.3L92.2,98.3z"/>
	<g id="XMLID_37773_">
		<g id="XMLID_37788_">
			<g id="XMLID_128_">
				<path id="XMLID_135_" class="st4" d="M245.9,137.2c-5.3-6.1-19.1-24.3-19.1-34.4c0-0.1,0-0.3,0-0.4c0-0.1,0-0.3,0-0.4v-9.2
					c0,0,0,0,0,0c0.9-1.4,4-5.5,10.3-5.6c0,0,0.1,0,0.1,0c0,0,0.1,0,0.1,0c0,0,0.1,0,0.1,0c0,0,0.1,0,0.1,0c0,0,0.1,0,0.1,0
					c0,0,0.1,0,0.1,0c0,0,0.1,0,0.1,0c0,0,0.1,0,0.1,0c0,0,0.1,0,0.1,0c0,0,0.1,0,0.1-0.1c0,0,0.1,0,0.1-0.1c0,0,0.1,0,0.1-0.1
					c0,0,0.1,0,0.1-0.1c0,0,0.1-0.1,0.1-0.1c0,0,0.1-0.1,0.1-0.1c0,0,0.1-0.1,0.1-0.1c0,0,0.1-0.1,0.1-0.1c0,0,0.1-0.1,0.1-0.1
					c0,0,0-0.1,0.1-0.1c0,0,0.1-0.1,0.1-0.1c0,0,0-0.1,0.1-0.1c0,0,0-0.1,0.1-0.1c0,0,0-0.1,0.1-0.1c0,0,0-0.1,0.1-0.1
					c0,0,0-0.1,0-0.1c0,0,0-0.1,0-0.1c0,0,0-0.1,0-0.1c0,0,0-0.1,0-0.1c0,0,0-0.1,0-0.1c0,0,0-0.1,0-0.1c0,0,0-0.1,0-0.1
					c0,0,0-0.1,0-0.1v-5.5c0,0,0-0.1,0-0.1c0,0,0-0.1,0-0.1c0,0,0-0.1,0-0.1c0,0,0-0.1,0-0.1c0,0,0-0.1,0-0.1c0,0,0-0.1,0-0.1
					c0,0,0-0.1,0-0.1c0,0,0-0.1,0-0.1c0,0,0-0.1-0.1-0.1c0,0,0-0.1-0.1-0.1c0,0,0-0.1-0.1-0.1c0,0,0-0.1-0.1-0.1c0,0,0-0.1-0.1-0.1
					c0,0-0.1-0.1-0.1-0.1c0,0,0-0.1-0.1-0.1c0,0-0.1-0.1-0.1-0.1c0,0-0.1-0.1-0.1-0.1c0,0-0.1-0.1-0.1-0.1c0,0-0.1-0.1-0.1-0.1
					c0,0,0,0-0.1,0l-12.4-8.8c0,0,0,0,0,0c0,0-0.1-0.1-0.1-0.1c0,0-0.1,0-0.1-0.1c0,0-0.1,0-0.1-0.1c0,0-0.1,0-0.1,0
					c0,0-0.1,0-0.1,0c0,0-0.1,0-0.1,0c0,0-0.1,0-0.1,0c-0.1,0-0.1,0-0.2,0c0,0-0.1,0-0.1,0c-0.1,0-0.1,0-0.2,0c0,0-0.1,0-0.1,0
					c-0.1,0-0.1,0-0.2,0c0,0,0,0,0,0h-34.2c-0.1,0-0.1,0-0.2,0c-0.1,0-0.1,0-0.2,0h-8.6c-1.7,0-3,1.4-3,3v8.6c0,1.7,1.4,3,3,3h6.3
					v2.3c0,0,0,0.1,0,0.1c0,0,0,0.1,0,0.1c0,0,0,0,0,0c0,0.1,0,0.1,0,0.2c0,0,0,0.1,0,0.1c0,0.1,0,0.1,0,0.2c0,0,0,0.1,0,0.1
					c0,0.1,0,0.1,0.1,0.1c0,0,0,0.1,0,0.1c0,0,0,0.1,0.1,0.1c0,0,0,0.1,0,0.1c0,0,0.1,0.1,0.1,0.1c0,0,0,0.1,0,0.1
					c0,0.1,0.1,0.1,0.1,0.1c0,0,0,0,0,0.1c0,0.1,0.1,0.1,0.1,0.1c0,0,0,0,0,0c0,0,0.1,0.1,0.2,0.1c0,0,0,0,0,0
					c0.1,0,0.1,0.1,0.2,0.1c0,0,0,0,0,0c0.1,0,0.1,0.1,0.2,0.1c0,0,0,0,0,0c0.1,0,0.1,0.1,0.2,0.1c0,0,0,0,0,0
					c0.1,0,0.1,0.1,0.2,0.1c0,0,0,0,0.1,0c0.1,0,0.1,0,0.2,0c0,0,0.1,0,0.1,0c0.1,0,0.1,0,0.2,0c0,0,0.1,0,0.1,0c0,0,0.1,0,0.1,0
					c0,0,0.1,0,0.1,0c0,0,0,0,0,0c0,0,0.1,0,0.1,0c0,0,0.1,0,0.1,0c0.1,0,0.2,0,0.2,0c-0.1,3.4-0.8,8.6-3.5,11.6c0,0,0,0,0,0
					c0,0-0.1,0.1-0.1,0.1c0,0,0,0,0,0.1c0,0-0.1,0.1-0.1,0.1c-0.2,0.2-0.3,0.5-0.4,0.8c0,0,0,0,0,0c0,0,0,0.1,0,0.1c0,0,0,0.1,0,0.1
					c0,0,0,0,0,0c0,0.3,0,0.6,0,0.8c0,0,0,0.1,0,0.1c0,0,0,0,0,0.1c0,0.1,0,0.1,0.1,0.2c0,0,0,0,0,0c0,0,0,0,0,0
					c0,0.1,0.1,0.2,0.2,0.3c0,0,0,0,0,0c0.1,0.1,0.1,0.2,0.2,0.3c0,0,0,0,0.1,0.1c0.1,0.1,0.1,0.1,0.2,0.2c0,0,0,0,0.1,0.1
					c0,0,0,0,0,0c0.1,0.1,0.2,0.1,0.3,0.2c0,0,0,0,0.1,0c0.2,0.1,0.4,0.2,0.6,0.3c0,0,0,0,0.1,0c0.1,0,0.2,0.1,0.3,0.1
					c0,0,0,0,0.1,0c0.1,0,0.2,0,0.3,0c0,0,0,0,0,0c0.1,0,0.2,0,0.3,0c0,0,0,0,0.1,0c0.1,0,0.1,0,0.2,0c0,0,0.1,0,0.1,0
					c0,0,0.1,0,0.1,0c0,0,0.1,0,0.1,0c0,0,0,0,0,0c5.6-2,10.2-6.7,12.8-9.8c0.2,0.2,0.4,0.3,0.6,0.5v8.1c0,0.2,0,0.3,0,0.4
					c0,0.1,0,0.3,0,0.4c0,10.1-13.8,28.2-19.1,34.4c-0.1,0.1-0.1,0.1-0.2,0.2c0,0,0,0.1-0.1,0.1c0,0-0.1,0.1-0.1,0.1
					c0,0,0,0.1-0.1,0.1c0,0,0,0.1-0.1,0.1c0,0,0,0.1-0.1,0.1c0,0,0,0.1,0,0.1c0,0,0,0.1,0,0.1c0,0,0,0.1,0,0.1c0,0,0,0.1,0,0.1
					c0,0,0,0.1,0,0.1c0,0,0,0.1,0,0.1c0,0,0,0.1,0,0.1c0,0,0,0.1,0,0.1c0,0,0,0,0,0v26.5c0,7.3,6,13.3,13.3,13.3h36.1
					c7.3,0,13.3-6,13.3-13.3v-26.2C246.6,138.5,246.4,137.7,245.9,137.2z M208.9,99.6V95h12.6v4.6H208.9z M222.4,89.7H207
					c-0.3-0.6-0.9-1.4-1.8-2.4c-0.2-0.2-0.3-0.4-0.6-0.6c-2.2-2.2-5.9-4.6-11.6-4.8v-2.7v-6.3h30.7l10.6,7.5v1.7
					C227.5,83.1,223.8,87.6,222.4,89.7z M183.7,77v-4.1h4.1V77H183.7z M195.5,93.6c0.5-2.2,0.6-4.2,0.7-5.8c1.3,0.4,2.4,0.9,3.3,1.5
					C198.5,90.5,197.1,92,195.5,93.6z M241.2,165.4c0,4.4-3.6,8-8,8h-36.1c-4.4,0-8-3.6-8-8v-25.6c0,0,0,0,0,0c0,0,0,0,0-0.1
					c0-0.1,0.1-0.1,0.1-0.2c0,0,0-0.1,0.1-0.1c0-0.1,0.1-0.1,0.1-0.2c0,0,0.1-0.1,0.1-0.1c0-0.1,0.1-0.1,0.1-0.2
					c0,0,0.1-0.1,0.1-0.1c0.1-0.1,0.1-0.1,0.2-0.2c0,0,0.1-0.1,0.1-0.1c0.1-0.1,0.1-0.1,0.2-0.2c0,0,0.1-0.1,0.1-0.1
					c0.1-0.1,0.1-0.2,0.2-0.3c0,0,0.1-0.1,0.1-0.1c0.1-0.1,0.2-0.2,0.3-0.3c0,0,0,0,0,0c0.1-0.1,0.2-0.3,0.3-0.4
					c0,0,0.1-0.1,0.1-0.1c0.1-0.1,0.2-0.2,0.2-0.3c0-0.1,0.1-0.1,0.1-0.2c0.1-0.1,0.1-0.2,0.2-0.3c0-0.1,0.1-0.1,0.1-0.2
					c0.1-0.1,0.1-0.2,0.2-0.3c0.1-0.1,0.1-0.1,0.2-0.2c0.1-0.1,0.1-0.2,0.2-0.3c0.1-0.1,0.1-0.1,0.2-0.2c0.1-0.1,0.1-0.2,0.2-0.3
					c0.1-0.1,0.1-0.1,0.2-0.2c0.1-0.1,0.1-0.2,0.2-0.3c0.1-0.1,0.1-0.1,0.2-0.2c0.1-0.1,0.2-0.2,0.2-0.3c0.1-0.1,0.1-0.2,0.2-0.2
					c0.1-0.1,0.2-0.2,0.2-0.3c0.1-0.1,0.1-0.1,0.2-0.2c0.1-0.1,0.2-0.3,0.3-0.4c0-0.1,0.1-0.1,0.1-0.2c0.1-0.2,0.3-0.4,0.4-0.6
					c0.1-0.1,0.1-0.1,0.2-0.2c0.1-0.1,0.2-0.3,0.3-0.4c0.1-0.1,0.1-0.2,0.2-0.3c0.1-0.1,0.2-0.2,0.2-0.3c0.1-0.1,0.1-0.2,0.2-0.3
					c0.1-0.1,0.2-0.2,0.2-0.3c0.1-0.1,0.1-0.2,0.2-0.3c0.1-0.1,0.2-0.2,0.2-0.3c0.1-0.1,0.1-0.2,0.2-0.3c0.1-0.1,0.2-0.2,0.2-0.3
					c0.1-0.1,0.1-0.2,0.2-0.3c0.1-0.1,0.2-0.2,0.2-0.4c0.1-0.1,0.1-0.2,0.2-0.3c0.1-0.1,0.2-0.2,0.2-0.4c0.1-0.1,0.1-0.2,0.2-0.3
					c0.1-0.1,0.2-0.3,0.3-0.4c0.1-0.1,0.1-0.2,0.2-0.3c0.1-0.2,0.2-0.3,0.3-0.5c0-0.1,0.1-0.1,0.1-0.2c0.1-0.2,0.3-0.5,0.4-0.7
					c0.1-0.1,0.1-0.2,0.2-0.2c0.1-0.2,0.2-0.3,0.3-0.5c0.1-0.1,0.1-0.2,0.2-0.3c0.1-0.1,0.2-0.3,0.3-0.4c0.1-0.1,0.1-0.2,0.2-0.3
					c0.1-0.1,0.2-0.3,0.2-0.4c0.1-0.1,0.1-0.2,0.2-0.3c0.1-0.1,0.2-0.3,0.2-0.4c0.1-0.1,0.1-0.2,0.2-0.3c0.1-0.1,0.2-0.3,0.2-0.4
					c0.1-0.1,0.1-0.2,0.2-0.3c0.1-0.1,0.2-0.3,0.2-0.4c0.1-0.1,0.1-0.2,0.2-0.3c0.1-0.1,0.2-0.3,0.2-0.4c0.1-0.1,0.1-0.2,0.2-0.3
					c0.1-0.1,0.2-0.3,0.2-0.4c0.1-0.1,0.1-0.2,0.2-0.3c0.1-0.2,0.2-0.3,0.3-0.5c0-0.1,0.1-0.2,0.1-0.3c0.1-0.2,0.3-0.5,0.4-0.7
					c0-0.1,0.1-0.1,0.1-0.2c0.1-0.2,0.2-0.4,0.3-0.5c0-0.1,0.1-0.2,0.1-0.3c0.1-0.2,0.1-0.3,0.2-0.5c0.1-0.1,0.1-0.2,0.2-0.3
					c0.1-0.1,0.1-0.3,0.2-0.4c0.1-0.1,0.1-0.2,0.2-0.3c0.1-0.1,0.1-0.3,0.2-0.4c0.1-0.1,0.1-0.2,0.1-0.3c0.1-0.1,0.1-0.3,0.2-0.4
					c0-0.1,0.1-0.2,0.1-0.3c0.1-0.1,0.1-0.3,0.2-0.4c0-0.1,0.1-0.2,0.1-0.3c0.1-0.1,0.1-0.3,0.2-0.4c0-0.1,0.1-0.2,0.1-0.3
					c0.1-0.1,0.1-0.3,0.2-0.4c0-0.1,0.1-0.2,0.1-0.3c0.1-0.2,0.1-0.3,0.2-0.5c0-0.1,0.1-0.2,0.1-0.2c0.1-0.2,0.2-0.5,0.2-0.7
					c0,0,0-0.1,0-0.1c0.1-0.2,0.1-0.4,0.2-0.6c0-0.1,0-0.2,0.1-0.3c0-0.2,0.1-0.3,0.1-0.5c0-0.1,0.1-0.2,0.1-0.3
					c0-0.1,0.1-0.3,0.1-0.4c0-0.1,0-0.2,0.1-0.3c0-0.1,0.1-0.3,0.1-0.4c0-0.1,0-0.2,0.1-0.3c0-0.1,0.1-0.3,0.1-0.4
					c0-0.1,0-0.2,0.1-0.3c0-0.1,0-0.3,0.1-0.4c0-0.1,0-0.2,0-0.3c0-0.1,0-0.3,0.1-0.4c0,0,0-0.1,0-0.1h3.8V159
					c0,1.5,1.2,2.6,2.6,2.6c1.5,0,2.6-1.2,2.6-2.6v-54.1h3.8c1.6,12.8,16.2,30.9,19.6,34.9V165.4z"/>
				<path id="XMLID_134_" class="st4" d="M173.9,75c0-1.5-1.2-2.6-2.6-2.6h-9.1c-1.5,0-2.6,1.2-2.6,2.6c0,1.5,1.2,2.6,2.6,2.6h9.1
					C172.7,77.6,173.9,76.4,173.9,75z"/>
				<path id="XMLID_133_" class="st4" d="M157.7,75c0-1.5-1.2-2.6-2.6-2.6h-0.8c-1.5,0-2.6,1.2-2.6,2.6c0,1.5,1.2,2.6,2.6,2.6h0.8
					C156.5,77.6,157.7,76.4,157.7,75z"/>
				<path id="XMLID_132_" class="st4" d="M174.5,65.4l-7.9-4.5c-1.3-0.7-2.9-0.3-3.6,1c-0.7,1.3-0.3,2.9,1,3.6l7.9,4.5
					c0.4,0.2,0.9,0.4,1.3,0.4c0.9,0,1.8-0.5,2.3-1.3C176.2,67.7,175.8,66.1,174.5,65.4z"/>
				<path id="XMLID_131_" class="st4" d="M157.2,61.5l0.7,0.4c0.4,0.2,0.9,0.4,1.3,0.4c0.9,0,1.8-0.5,2.3-1.3c0.7-1.3,0.3-2.9-1-3.6
					l-0.7-0.4c-1.3-0.7-2.9-0.3-3.6,1C155.5,59.1,155.9,60.7,157.2,61.5z"/>
				<path id="XMLID_130_" class="st4" d="M171.9,80l-7.9,4.5c-1.3,0.7-1.7,2.3-1,3.6c0.5,0.8,1.4,1.3,2.3,1.3c0.4,0,0.9-0.1,1.3-0.4
					l7.9-4.5c1.3-0.7,1.7-2.3,1-3.6C174.8,79.7,173.2,79.2,171.9,80z"/>
				<path id="XMLID_129_" class="st4" d="M157.9,88.1l-0.7,0.4c-1.3,0.7-1.7,2.3-1,3.6c0.5,0.8,1.4,1.3,2.3,1.3
					c0.4,0,0.9-0.1,1.3-0.4l0.7-0.4c1.3-0.7,1.7-2.3,1-3.6C160.8,87.8,159.2,87.3,157.9,88.1z"/>
			</g>
		</g>
		<g id="XMLID_37774_">
			<path id="XMLID_37781_" class="st1" d="M245.9,137.2c-5.3-6.1-19.1-24.3-19.1-34.4c0-0.1,0-0.3,0-0.4c0-0.1,0-0.3,0-0.4v-9.2
				c0,0,0,0,0,0c0.9-1.4,4-5.5,10.3-5.6c0,0,0.1,0,0.1,0c0,0,0.1,0,0.1,0c0,0,0.1,0,0.1,0c0,0,0.1,0,0.1,0c0,0,0.1,0,0.1,0
				c0,0,0.1,0,0.1,0c0,0,0.1,0,0.1,0c0,0,0.1,0,0.1,0c0,0,0.1,0,0.1,0c0,0,0.1,0,0.1-0.1c0,0,0.1,0,0.1-0.1c0,0,0.1,0,0.1-0.1
				c0,0,0.1,0,0.1-0.1c0,0,0.1-0.1,0.1-0.1c0,0,0.1-0.1,0.1-0.1c0,0,0.1-0.1,0.1-0.1c0,0,0.1-0.1,0.1-0.1c0,0,0.1-0.1,0.1-0.1
				c0,0,0-0.1,0.1-0.1c0,0,0.1-0.1,0.1-0.1c0,0,0-0.1,0.1-0.1c0,0,0-0.1,0.1-0.1c0,0,0-0.1,0.1-0.1c0,0,0-0.1,0.1-0.1
				c0,0,0-0.1,0-0.1c0,0,0-0.1,0-0.1c0,0,0-0.1,0-0.1c0,0,0-0.1,0-0.1c0,0,0-0.1,0-0.1c0,0,0-0.1,0-0.1c0,0,0-0.1,0-0.1
				c0,0,0-0.1,0-0.1v-5.5c0,0,0-0.1,0-0.1c0,0,0-0.1,0-0.1c0,0,0-0.1,0-0.1c0,0,0-0.1,0-0.1c0,0,0-0.1,0-0.1c0,0,0-0.1,0-0.1
				c0,0,0-0.1,0-0.1c0,0,0-0.1,0-0.1c0,0,0-0.1-0.1-0.1c0,0,0-0.1-0.1-0.1c0,0,0-0.1-0.1-0.1c0,0,0-0.1-0.1-0.1c0,0,0-0.1-0.1-0.1
				c0,0-0.1-0.1-0.1-0.1c0,0,0-0.1-0.1-0.1c0,0-0.1-0.1-0.1-0.1c0,0-0.1-0.1-0.1-0.1c0,0-0.1-0.1-0.1-0.1c0,0-0.1-0.1-0.1-0.1
				c0,0,0,0-0.1,0l-12.4-8.8c0,0,0,0,0,0c0,0-0.1-0.1-0.1-0.1c0,0-0.1,0-0.1-0.1c0,0-0.1,0-0.1-0.1c0,0-0.1,0-0.1,0c0,0-0.1,0-0.1,0
				c0,0-0.1,0-0.1,0c0,0-0.1,0-0.1,0c-0.1,0-0.1,0-0.2,0c0,0-0.1,0-0.1,0c-0.1,0-0.1,0-0.2,0c0,0-0.1,0-0.1,0c-0.1,0-0.1,0-0.2,0
				c0,0,0,0,0,0h-34.2c-0.1,0-0.1,0-0.2,0c-0.1,0-0.1,0-0.2,0h-8.6c-1.7,0-3,1.4-3,3v8.6c0,1.7,1.4,3,3,3h6.3v2.3c0,0,0,0.1,0,0.1
				c0,0,0,0.1,0,0.1c0,0,0,0,0,0c0,0.1,0,0.1,0,0.2c0,0,0,0.1,0,0.1c0,0.1,0,0.1,0,0.2c0,0,0,0.1,0,0.1c0,0.1,0,0.1,0.1,0.1
				c0,0,0,0.1,0,0.1c0,0,0,0.1,0.1,0.1c0,0,0,0.1,0,0.1c0,0,0.1,0.1,0.1,0.1c0,0,0,0.1,0,0.1c0,0.1,0.1,0.1,0.1,0.1c0,0,0,0,0,0.1
				c0,0.1,0.1,0.1,0.1,0.1c0,0,0,0,0,0c0,0,0.1,0.1,0.2,0.1c0,0,0,0,0,0c0.1,0,0.1,0.1,0.2,0.1c0,0,0,0,0,0c0.1,0,0.1,0.1,0.2,0.1
				c0,0,0,0,0,0c0.1,0,0.1,0.1,0.2,0.1c0,0,0,0,0,0c0.1,0,0.1,0.1,0.2,0.1c0,0,0,0,0.1,0c0.1,0,0.1,0,0.2,0c0,0,0.1,0,0.1,0
				c0.1,0,0.1,0,0.2,0c0,0,0.1,0,0.1,0c0,0,0.1,0,0.1,0c0,0,0.1,0,0.1,0c0,0,0,0,0,0c0,0,0.1,0,0.1,0c0,0,0.1,0,0.1,0
				c0.1,0,0.2,0,0.2,0c-0.1,3.4-0.8,8.6-3.5,11.6c0,0,0,0,0,0c0,0-0.1,0.1-0.1,0.1c0,0,0,0,0,0.1c0,0-0.1,0.1-0.1,0.1
				c-0.2,0.2-0.3,0.5-0.4,0.8c0,0,0,0,0,0c0,0,0,0.1,0,0.1c0,0,0,0.1,0,0.1c0,0,0,0,0,0c0,0.3,0,0.6,0,0.8c0,0,0,0.1,0,0.1
				c0,0,0,0,0,0.1c0,0.1,0,0.1,0.1,0.2c0,0,0,0,0,0c0,0,0,0,0,0c0,0.1,0.1,0.2,0.2,0.3c0,0,0,0,0,0c0.1,0.1,0.1,0.2,0.2,0.3
				c0,0,0,0,0.1,0.1c0.1,0.1,0.1,0.1,0.2,0.2c0,0,0,0,0.1,0.1c0,0,0,0,0,0c0.1,0.1,0.2,0.1,0.3,0.2c0,0,0,0,0.1,0
				c0.2,0.1,0.4,0.2,0.6,0.3c0,0,0,0,0.1,0c0.1,0,0.2,0.1,0.3,0.1c0,0,0,0,0.1,0c0.1,0,0.2,0,0.3,0c0,0,0,0,0,0c0.1,0,0.2,0,0.3,0
				c0,0,0,0,0.1,0c0.1,0,0.1,0,0.2,0c0,0,0.1,0,0.1,0c0,0,0.1,0,0.1,0c0,0,0.1,0,0.1,0c0,0,0,0,0,0c5.6-2,10.2-6.7,12.8-9.8
				c0.2,0.2,0.4,0.3,0.6,0.5v8.1c0,0.2,0,0.3,0,0.4c0,0.1,0,0.3,0,0.4c0,10.1-13.8,28.2-19.1,34.4c-0.1,0.1-0.1,0.1-0.2,0.2
				c0,0,0,0.1-0.1,0.1c0,0-0.1,0.1-0.1,0.1c0,0,0,0.1-0.1,0.1c0,0,0,0.1-0.1,0.1c0,0,0,0.1-0.1,0.1c0,0,0,0.1,0,0.1c0,0,0,0.1,0,0.1
				c0,0,0,0.1,0,0.1c0,0,0,0.1,0,0.1c0,0,0,0.1,0,0.1c0,0,0,0.1,0,0.1c0,0,0,0.1,0,0.1c0,0,0,0.1,0,0.1c0,0,0,0,0,0v26.5
				c0,7.3,6,13.3,13.3,13.3h36.1c7.3,0,13.3-6,13.3-13.3v-26.2C246.6,138.5,246.4,137.7,245.9,137.2z M208.9,99.6V95h12.6v4.6H208.9
				z M222.4,89.7H207c-0.3-0.6-0.9-1.4-1.8-2.4c-0.2-0.2-0.3-0.4-0.6-0.6c-2.2-2.2-5.9-4.6-11.6-4.8v-2.7v-6.3h30.7l10.6,7.5v1.7
				C227.5,83.1,223.8,87.6,222.4,89.7z M183.7,77v-4.1h4.1V77H183.7z M195.5,93.6c0.5-2.2,0.6-4.2,0.7-5.8c1.3,0.4,2.4,0.9,3.3,1.5
				C198.5,90.5,197.1,92,195.5,93.6z M241.2,165.4c0,4.4-3.6,8-8,8h-36.1c-4.4,0-8-3.6-8-8v-25.6c0,0,0,0,0,0c0,0,0,0,0-0.1
				c0-0.1,0.1-0.1,0.1-0.2c0,0,0-0.1,0.1-0.1c0-0.1,0.1-0.1,0.1-0.2c0,0,0.1-0.1,0.1-0.1c0-0.1,0.1-0.1,0.1-0.2c0,0,0.1-0.1,0.1-0.1
				c0.1-0.1,0.1-0.1,0.2-0.2c0,0,0.1-0.1,0.1-0.1c0.1-0.1,0.1-0.1,0.2-0.2c0,0,0.1-0.1,0.1-0.1c0.1-0.1,0.1-0.2,0.2-0.3
				c0,0,0.1-0.1,0.1-0.1c0.1-0.1,0.2-0.2,0.3-0.3c0,0,0,0,0,0c0.1-0.1,0.2-0.3,0.3-0.4c0,0,0.1-0.1,0.1-0.1c0.1-0.1,0.2-0.2,0.2-0.3
				c0-0.1,0.1-0.1,0.1-0.2c0.1-0.1,0.1-0.2,0.2-0.3c0-0.1,0.1-0.1,0.1-0.2c0.1-0.1,0.1-0.2,0.2-0.3c0.1-0.1,0.1-0.1,0.2-0.2
				c0.1-0.1,0.1-0.2,0.2-0.3c0.1-0.1,0.1-0.1,0.2-0.2c0.1-0.1,0.1-0.2,0.2-0.3c0.1-0.1,0.1-0.1,0.2-0.2c0.1-0.1,0.1-0.2,0.2-0.3
				c0.1-0.1,0.1-0.1,0.2-0.2c0.1-0.1,0.2-0.2,0.2-0.3c0.1-0.1,0.1-0.2,0.2-0.2c0.1-0.1,0.2-0.2,0.2-0.3c0.1-0.1,0.1-0.1,0.2-0.2
				c0.1-0.1,0.2-0.3,0.3-0.4c0-0.1,0.1-0.1,0.1-0.2c0.1-0.2,0.3-0.4,0.4-0.6c0.1-0.1,0.1-0.1,0.2-0.2c0.1-0.1,0.2-0.3,0.3-0.4
				c0.1-0.1,0.1-0.2,0.2-0.3c0.1-0.1,0.2-0.2,0.2-0.3c0.1-0.1,0.1-0.2,0.2-0.3c0.1-0.1,0.2-0.2,0.2-0.3c0.1-0.1,0.1-0.2,0.2-0.3
				c0.1-0.1,0.2-0.2,0.2-0.3c0.1-0.1,0.1-0.2,0.2-0.3c0.1-0.1,0.2-0.2,0.2-0.3c0.1-0.1,0.1-0.2,0.2-0.3c0.1-0.1,0.2-0.2,0.2-0.4
				c0.1-0.1,0.1-0.2,0.2-0.3c0.1-0.1,0.2-0.2,0.2-0.4c0.1-0.1,0.1-0.2,0.2-0.3c0.1-0.1,0.2-0.3,0.3-0.4c0.1-0.1,0.1-0.2,0.2-0.3
				c0.1-0.2,0.2-0.3,0.3-0.5c0-0.1,0.1-0.1,0.1-0.2c0.1-0.2,0.3-0.5,0.4-0.7c0.1-0.1,0.1-0.2,0.2-0.2c0.1-0.2,0.2-0.3,0.3-0.5
				c0.1-0.1,0.1-0.2,0.2-0.3c0.1-0.1,0.2-0.3,0.3-0.4c0.1-0.1,0.1-0.2,0.2-0.3c0.1-0.1,0.2-0.3,0.2-0.4c0.1-0.1,0.1-0.2,0.2-0.3
				c0.1-0.1,0.2-0.3,0.2-0.4c0.1-0.1,0.1-0.2,0.2-0.3c0.1-0.1,0.2-0.3,0.2-0.4c0.1-0.1,0.1-0.2,0.2-0.3c0.1-0.1,0.2-0.3,0.2-0.4
				c0.1-0.1,0.1-0.2,0.2-0.3c0.1-0.1,0.2-0.3,0.2-0.4c0.1-0.1,0.1-0.2,0.2-0.3c0.1-0.1,0.2-0.3,0.2-0.4c0.1-0.1,0.1-0.2,0.2-0.3
				c0.1-0.2,0.2-0.3,0.3-0.5c0-0.1,0.1-0.2,0.1-0.3c0.1-0.2,0.3-0.5,0.4-0.7c0-0.1,0.1-0.1,0.1-0.2c0.1-0.2,0.2-0.4,0.3-0.5
				c0-0.1,0.1-0.2,0.1-0.3c0.1-0.2,0.1-0.3,0.2-0.5c0.1-0.1,0.1-0.2,0.2-0.3c0.1-0.1,0.1-0.3,0.2-0.4c0.1-0.1,0.1-0.2,0.2-0.3
				c0.1-0.1,0.1-0.3,0.2-0.4c0.1-0.1,0.1-0.2,0.1-0.3c0.1-0.1,0.1-0.3,0.2-0.4c0-0.1,0.1-0.2,0.1-0.3c0.1-0.1,0.1-0.3,0.2-0.4
				c0-0.1,0.1-0.2,0.1-0.3c0.1-0.1,0.1-0.3,0.2-0.4c0-0.1,0.1-0.2,0.1-0.3c0.1-0.1,0.1-0.3,0.2-0.4c0-0.1,0.1-0.2,0.1-0.3
				c0.1-0.2,0.1-0.3,0.2-0.5c0-0.1,0.1-0.2,0.1-0.2c0.1-0.2,0.2-0.5,0.2-0.7c0,0,0-0.1,0-0.1c0.1-0.2,0.1-0.4,0.2-0.6
				c0-0.1,0-0.2,0.1-0.3c0-0.2,0.1-0.3,0.1-0.5c0-0.1,0.1-0.2,0.1-0.3c0-0.1,0.1-0.3,0.1-0.4c0-0.1,0-0.2,0.1-0.3
				c0-0.1,0.1-0.3,0.1-0.4c0-0.1,0-0.2,0.1-0.3c0-0.1,0.1-0.3,0.1-0.4c0-0.1,0-0.2,0.1-0.3c0-0.1,0-0.3,0.1-0.4c0-0.1,0-0.2,0-0.3
				c0-0.1,0-0.3,0.1-0.4c0,0,0-0.1,0-0.1h3.8V159c0,1.5,1.2,2.6,2.6,2.6c1.5,0,2.6-1.2,2.6-2.6v-54.1h3.8
				c1.6,12.8,16.2,30.9,19.6,34.9V165.4z"/>
			<path id="XMLID_37780_" class="st1" d="M173.9,75c0-1.5-1.2-2.6-2.6-2.6h-9.1c-1.5,0-2.6,1.2-2.6,2.6c0,1.5,1.2,2.6,2.6,2.6h9.1
				C172.7,77.6,173.9,76.4,173.9,75z"/>
			<path id="XMLID_37779_" class="st1" d="M157.7,75c0-1.5-1.2-2.6-2.6-2.6h-0.8c-1.5,0-2.6,1.2-2.6,2.6c0,1.5,1.2,2.6,2.6,2.6h0.8
				C156.5,77.6,157.7,76.4,157.7,75z"/>
			<path id="XMLID_37778_" class="st1" d="M174.5,65.4l-7.9-4.5c-1.3-0.7-2.9-0.3-3.6,1c-0.7,1.3-0.3,2.9,1,3.6l7.9,4.5
				c0.4,0.2,0.9,0.4,1.3,0.4c0.9,0,1.8-0.5,2.3-1.3C176.2,67.7,175.8,66.1,174.5,65.4z"/>
			<path id="XMLID_37777_" class="st1" d="M157.2,61.5l0.7,0.4c0.4,0.2,0.9,0.4,1.3,0.4c0.9,0,1.8-0.5,2.3-1.3
				c0.7-1.3,0.3-2.9-1-3.6l-0.7-0.4c-1.3-0.7-2.9-0.3-3.6,1C155.5,59.1,155.9,60.7,157.2,61.5z"/>
			<path id="XMLID_37776_" class="st1" d="M171.9,80l-7.9,4.5c-1.3,0.7-1.7,2.3-1,3.6c0.5,0.8,1.4,1.3,2.3,1.3
				c0.4,0,0.9-0.1,1.3-0.4l7.9-4.5c1.3-0.7,1.7-2.3,1-3.6C174.8,79.7,173.2,79.2,171.9,80z"/>
			<path id="XMLID_37775_" class="st1" d="M157.9,88.1l-0.7,0.4c-1.3,0.7-1.7,2.3-1,3.6c0.5,0.8,1.4,1.3,2.3,1.3
				c0.4,0,0.9-0.1,1.3-0.4l0.7-0.4c1.3-0.7,1.7-2.3,1-3.6C160.8,87.8,159.2,87.3,157.9,88.1z"/>
		</g>
	</g>
</g>
</svg>
