<?xml version="1.0" encoding="utf-8"?>
<!-- Generator: Adobe Illustrator 19.0.0, SVG Export Plug-In . SVG Version: 6.00 Build 0)  -->
<svg version="1.1" id="Capa_1" xmlns="http://www.w3.org/2000/svg" xmlns:xlink="http://www.w3.org/1999/xlink" x="0px" y="0px"
	 viewBox="0 0 800 600" style="enable-background:new 0 0 800 600;" xml:space="preserve">
<style type="text/css">
	.st0{fill:#3A3A3A;}
	.st1{fill:none;stroke:#3A3A3A;stroke-width:14;stroke-miterlimit:10;}
	.st2{fill:#45B5D3;}
</style>
<g id="XMLID_44121_">
	<g id="XMLID_132_">
		<path id="XMLID_139_" class="st0" d="M739.5,457c-13.7-15.8-49.1-62.5-49.1-88.4c0-0.4,0-0.7-0.1-1.1c0.1-0.4,0.1-0.8,0.1-1.1
			v-23.6c0,0,0,0,0,0c2.3-3.7,10.3-14.2,26.4-14.3c0.1,0,0.2,0,0.3,0c0.1,0,0.2,0,0.3,0c0.1,0,0.2,0,0.3,0c0.1,0,0.2,0,0.4-0.1
			c0.1,0,0.2-0.1,0.3-0.1c0.1,0,0.2-0.1,0.3-0.1c0.1,0,0.2-0.1,0.3-0.1c0.1,0,0.2-0.1,0.3-0.1c0.1,0,0.2-0.1,0.3-0.1
			c0.1-0.1,0.2-0.1,0.3-0.2c0.1,0,0.2-0.1,0.2-0.1c0.1-0.1,0.2-0.1,0.3-0.2c0.1-0.1,0.2-0.1,0.2-0.2c0.1-0.1,0.2-0.1,0.3-0.2
			c0.1-0.1,0.1-0.1,0.2-0.2c0.1-0.1,0.2-0.2,0.3-0.2c0.1-0.1,0.1-0.1,0.2-0.2c0.1-0.1,0.2-0.2,0.2-0.3c0.1-0.1,0.1-0.2,0.2-0.2
			c0.1-0.1,0.1-0.2,0.2-0.3c0.1-0.1,0.1-0.2,0.2-0.3c0.1-0.1,0.1-0.2,0.2-0.3c0-0.1,0.1-0.2,0.1-0.3c0-0.1,0.1-0.2,0.1-0.3
			c0-0.1,0.1-0.2,0.1-0.3c0-0.1,0.1-0.2,0.1-0.3c0-0.1,0.1-0.2,0.1-0.3c0-0.1,0.1-0.2,0.1-0.3c0-0.1,0-0.2,0.1-0.4
			c0-0.1,0-0.2,0-0.3c0-0.1,0-0.3,0-0.4c0-0.1,0-0.2,0-0.3v-14.1c0-0.1,0-0.1,0-0.2c0-0.1,0-0.3,0-0.4c0-0.1,0-0.2,0-0.3
			c0-0.1,0-0.2,0-0.3c0-0.1-0.1-0.2-0.1-0.4c0-0.1,0-0.2-0.1-0.3c0-0.1-0.1-0.2-0.1-0.4c0-0.1-0.1-0.2-0.1-0.3
			c0-0.1-0.1-0.2-0.1-0.3c0-0.1-0.1-0.2-0.1-0.3c0-0.1-0.1-0.2-0.2-0.3c-0.1-0.1-0.1-0.2-0.2-0.3c-0.1-0.1-0.1-0.2-0.2-0.2
			c-0.1-0.1-0.1-0.2-0.2-0.3c-0.1-0.1-0.1-0.2-0.2-0.2c-0.1-0.1-0.2-0.2-0.2-0.3c-0.1-0.1-0.2-0.2-0.2-0.2c-0.1-0.1-0.2-0.1-0.2-0.2
			c-0.1-0.1-0.2-0.2-0.3-0.2c-0.1,0-0.1-0.1-0.2-0.1l-31.8-22.6c0,0,0,0-0.1,0c-0.1-0.1-0.2-0.2-0.4-0.2c-0.1,0-0.1-0.1-0.2-0.1
			c-0.1-0.1-0.2-0.1-0.3-0.2c-0.1,0-0.2-0.1-0.3-0.1c-0.1,0-0.2-0.1-0.3-0.1c-0.1,0-0.2-0.1-0.3-0.1c-0.1,0-0.2,0-0.3-0.1
			c-0.1,0-0.3-0.1-0.4-0.1c-0.1,0-0.2,0-0.2,0c-0.1,0-0.3-0.1-0.4-0.1c-0.1,0-0.1,0-0.2,0c-0.2,0-0.3,0-0.5,0c0,0,0,0-0.1,0h-88
			c-0.2,0-0.3,0-0.5,0c-0.2,0-0.3,0-0.5,0h-22.1c-4.3,0-7.8,3.5-7.8,7.8v22.1c0,4.3,3.5,7.8,7.8,7.8h16.3v5.9c0,0.1,0,0.2,0,0.3
			c0,0.1,0,0.2,0,0.2c0,0,0,0.1,0,0.1c0,0.1,0,0.3,0,0.4c0,0.1,0,0.2,0,0.3c0,0.1,0.1,0.3,0.1,0.4c0,0.1,0,0.2,0.1,0.3
			c0,0.1,0.1,0.3,0.1,0.4c0,0.1,0.1,0.2,0.1,0.3c0.1,0.1,0.1,0.2,0.2,0.4c0,0.1,0.1,0.2,0.1,0.2c0.1,0.1,0.1,0.2,0.2,0.4
			c0,0.1,0.1,0.1,0.1,0.2c0.1,0.1,0.2,0.3,0.3,0.4c0,0,0.1,0.1,0.1,0.2c0.1,0.1,0.2,0.3,0.3,0.4c0,0,0.1,0.1,0.1,0.1
			c0.1,0.1,0.3,0.2,0.4,0.4c0,0,0.1,0.1,0.1,0.1c0.1,0.1,0.3,0.2,0.4,0.3c0,0,0,0,0.1,0.1c0.2,0.1,0.3,0.2,0.5,0.3c0,0,0,0,0.1,0
			c0.2,0.1,0.3,0.2,0.5,0.2c0,0,0.1,0,0.1,0c0.2,0.1,0.3,0.1,0.5,0.2c0.1,0,0.1,0,0.2,0.1c0.1,0,0.3,0.1,0.4,0.1
			c0.1,0,0.1,0,0.2,0.1c0.1,0,0.3,0.1,0.4,0.1c0.1,0,0.2,0,0.3,0c0.1,0,0.2,0,0.4,0c0.1,0,0.2,0,0.3,0c0,0,0.1,0,0.1,0
			c0.1,0,0.2,0,0.3,0c0.1,0,0.2,0,0.2,0c0.2,0,0.4,0,0.6,0c-0.2,8.7-2,22.1-9.1,29.8c0,0,0,0,0,0c-0.1,0.1-0.2,0.2-0.3,0.4
			c0,0.1-0.1,0.1-0.1,0.2c-0.1,0.1-0.1,0.2-0.2,0.3c-0.4,0.6-0.7,1.3-0.9,2c0,0,0,0,0,0c0,0.1,0,0.2-0.1,0.4c0,0.1,0,0.2-0.1,0.3
			c0,0,0,0.1,0,0.1c-0.1,0.7-0.1,1.4,0.1,2.1c0,0.1,0,0.3,0.1,0.4c0,0.1,0,0.1,0,0.2c0,0.2,0.1,0.3,0.2,0.5c0,0,0,0,0,0c0,0,0,0,0,0
			c0.1,0.3,0.2,0.6,0.4,0.9c0,0,0,0.1,0.1,0.1c0.1,0.3,0.3,0.5,0.5,0.8c0,0.1,0.1,0.1,0.1,0.2c0.2,0.2,0.3,0.4,0.5,0.6
			c0,0,0.1,0.1,0.1,0.1c0,0,0,0,0,0c0.2,0.2,0.4,0.4,0.7,0.5c0.1,0,0.1,0.1,0.2,0.1c0.5,0.4,1.1,0.6,1.7,0.8c0,0,0.1,0,0.1,0
			c0.3,0.1,0.6,0.2,0.9,0.2c0.1,0,0.1,0,0.2,0c0.3,0,0.6,0.1,0.9,0.1c0,0,0,0,0.1,0c0.2,0,0.4,0,0.7,0c0,0,0.1,0,0.1,0
			c0.2,0,0.3,0,0.5-0.1c0.1,0,0.2,0,0.2,0c0.1,0,0.3-0.1,0.4-0.1c0.1,0,0.2-0.1,0.3-0.1c0,0,0.1,0,0.1,0c14.4-5.2,26.3-17.2,33-25.2
			c0.4,0.5,0.9,0.9,1.4,1.2v20.9c0,0.4,0,0.8,0.1,1.1c-0.1,0.4-0.1,0.7-0.1,1.1c0,25.9-35.4,72.6-49.1,88.4
			c-0.1,0.2-0.3,0.3-0.4,0.5c-0.1,0.1-0.1,0.1-0.1,0.2c-0.1,0.1-0.1,0.2-0.2,0.3c-0.1,0.1-0.1,0.2-0.1,0.3c0,0.1-0.1,0.2-0.1,0.3
			c0,0.1-0.1,0.2-0.1,0.3c0,0.1-0.1,0.2-0.1,0.3c0,0.1-0.1,0.2-0.1,0.3c0,0.1-0.1,0.2-0.1,0.3c0,0.1,0,0.2-0.1,0.3
			c0,0.1,0,0.2-0.1,0.3c0,0.1,0,0.2,0,0.3c0,0.1,0,0.3,0,0.4c0,0.1,0,0.2,0,0.3c0,0,0,0.1,0,0.1v68.3c0,18.9,15.3,34.2,34.2,34.2
			h92.8c18.8,0,34.2-15.3,34.2-34.2v-67.4C741.3,460.5,740.8,458.5,739.5,457z M644.3,360.5v-11.8h32.5v11.8H644.3z M679.2,335.1
			h-39.6c-0.9-1.5-2.3-3.7-4.5-6.2c-0.4-0.6-0.9-1.1-1.5-1.5c-5.6-5.6-15.1-11.8-29.8-12.4v-6.8v-16.3h79l27.2,19.3v4.3
			C692.3,317.9,682.8,329.5,679.2,335.1z M579.6,302.3v-10.5h10.5v10.5H579.6z M609.8,344.9c1.2-5.6,1.7-10.9,1.8-15
			c3.5,1,6.3,2.4,8.5,3.9C617.7,336.9,614.1,341,609.8,344.9z M727.4,529.7c0,11.3-9.2,20.6-20.6,20.6h-92.8
			c-11.3,0-20.6-9.2-20.6-20.6V464c0,0,0.1-0.1,0.1-0.1c0,0,0.1-0.1,0.1-0.1c0.1-0.1,0.2-0.3,0.4-0.4c0.1-0.1,0.1-0.1,0.2-0.2
			c0.1-0.1,0.2-0.3,0.4-0.4c0.1-0.1,0.1-0.2,0.2-0.2c0.1-0.1,0.2-0.3,0.4-0.4c0.1-0.1,0.2-0.2,0.3-0.3c0.1-0.2,0.3-0.3,0.4-0.5
			c0.1-0.1,0.1-0.2,0.2-0.3c0.1-0.2,0.3-0.4,0.5-0.6c0.1-0.1,0.2-0.2,0.3-0.3c0.2-0.2,0.3-0.4,0.5-0.7c0.1-0.1,0.1-0.2,0.2-0.2
			c0.2-0.3,0.5-0.6,0.7-0.9c0,0,0-0.1,0.1-0.1c0.3-0.3,0.5-0.7,0.8-1c0.1-0.1,0.1-0.2,0.2-0.3c0.2-0.3,0.4-0.5,0.6-0.8
			c0.1-0.1,0.2-0.3,0.3-0.4c0.2-0.2,0.4-0.5,0.6-0.7c0.1-0.2,0.2-0.3,0.4-0.5c0.2-0.2,0.4-0.5,0.5-0.7c0.1-0.2,0.3-0.3,0.4-0.5
			c0.2-0.2,0.4-0.5,0.5-0.7c0.1-0.2,0.3-0.4,0.4-0.6c0.2-0.2,0.4-0.5,0.5-0.7c0.1-0.2,0.3-0.4,0.4-0.6c0.2-0.2,0.4-0.5,0.6-0.8
			c0.1-0.2,0.3-0.4,0.4-0.6c0.2-0.3,0.4-0.5,0.6-0.8c0.1-0.2,0.3-0.4,0.4-0.6c0.2-0.3,0.4-0.6,0.6-0.8c0.1-0.2,0.3-0.4,0.4-0.6
			c0.3-0.3,0.5-0.7,0.8-1c0.1-0.1,0.2-0.3,0.3-0.4c0.4-0.5,0.7-1,1.1-1.5c0.1-0.2,0.3-0.4,0.4-0.5c0.2-0.3,0.5-0.7,0.7-1
			c0.2-0.2,0.3-0.4,0.5-0.7c0.2-0.3,0.4-0.6,0.6-0.9c0.2-0.2,0.3-0.5,0.5-0.7c0.2-0.3,0.4-0.6,0.6-0.9c0.2-0.2,0.3-0.5,0.5-0.7
			c0.2-0.3,0.4-0.6,0.6-0.9c0.2-0.3,0.4-0.5,0.5-0.8c0.2-0.3,0.4-0.6,0.6-0.9c0.2-0.3,0.4-0.5,0.5-0.8c0.2-0.3,0.4-0.6,0.6-0.9
			c0.2-0.3,0.3-0.5,0.5-0.8c0.2-0.3,0.4-0.6,0.6-0.9c0.2-0.3,0.3-0.5,0.5-0.8c0.2-0.3,0.4-0.7,0.7-1c0.2-0.2,0.3-0.5,0.5-0.7
			c0.3-0.4,0.5-0.8,0.8-1.2c0.1-0.2,0.3-0.4,0.4-0.6c0.4-0.6,0.8-1.2,1.1-1.8c0.1-0.2,0.3-0.4,0.4-0.6c0.3-0.4,0.5-0.8,0.8-1.2
			c0.2-0.3,0.3-0.5,0.5-0.8c0.2-0.4,0.4-0.7,0.7-1.1c0.2-0.3,0.3-0.5,0.5-0.8c0.2-0.3,0.4-0.7,0.6-1c0.2-0.3,0.3-0.6,0.5-0.8
			c0.2-0.3,0.4-0.7,0.6-1c0.2-0.3,0.3-0.6,0.5-0.8c0.2-0.3,0.4-0.7,0.6-1c0.2-0.3,0.3-0.6,0.5-0.9c0.2-0.3,0.4-0.7,0.6-1
			c0.2-0.3,0.3-0.6,0.5-0.9c0.2-0.4,0.4-0.7,0.6-1.1c0.2-0.3,0.3-0.6,0.5-0.8c0.2-0.4,0.4-0.7,0.6-1.1c0.1-0.3,0.3-0.5,0.4-0.8
			c0.2-0.4,0.4-0.8,0.7-1.2c0.1-0.2,0.2-0.4,0.4-0.7c0.3-0.6,0.7-1.3,1-1.9c0.1-0.2,0.2-0.4,0.3-0.5c0.2-0.5,0.5-0.9,0.7-1.4
			c0.1-0.3,0.2-0.5,0.4-0.8c0.2-0.4,0.4-0.8,0.6-1.2c0.1-0.3,0.3-0.5,0.4-0.8c0.2-0.4,0.3-0.7,0.5-1.1c0.1-0.3,0.3-0.6,0.4-0.8
			c0.2-0.4,0.3-0.7,0.5-1.1c0.1-0.3,0.3-0.6,0.4-0.9c0.2-0.4,0.3-0.7,0.5-1.1c0.1-0.3,0.2-0.6,0.4-0.9c0.2-0.4,0.3-0.7,0.4-1.1
			c0.1-0.3,0.2-0.6,0.3-0.8c0.1-0.4,0.3-0.7,0.4-1.1c0.1-0.3,0.2-0.5,0.3-0.8c0.1-0.4,0.3-0.8,0.4-1.1c0.1-0.3,0.2-0.5,0.3-0.8
			c0.2-0.4,0.3-0.8,0.4-1.3c0.1-0.2,0.1-0.4,0.2-0.6c0.2-0.6,0.4-1.2,0.6-1.9c0-0.1,0.1-0.2,0.1-0.3c0.2-0.5,0.3-1,0.5-1.6
			c0.1-0.2,0.1-0.4,0.2-0.7c0.1-0.4,0.2-0.8,0.3-1.2c0.1-0.2,0.1-0.5,0.2-0.7c0.1-0.4,0.2-0.7,0.3-1.1c0.1-0.3,0.1-0.5,0.2-0.8
			c0.1-0.3,0.2-0.7,0.2-1c0.1-0.3,0.1-0.5,0.2-0.8c0.1-0.3,0.1-0.7,0.2-1c0-0.3,0.1-0.5,0.1-0.8c0.1-0.3,0.1-0.7,0.2-1
			c0-0.3,0.1-0.5,0.1-0.8c0-0.3,0.1-0.7,0.1-1c0-0.1,0-0.1,0-0.2h9.8v139.1c0,3.8,3,6.8,6.8,6.8c3.8,0,6.8-3,6.8-6.8V374.1h9.8
			c4.1,32.9,41.6,79.4,50.3,89.8V529.7z"/>
		<path id="XMLID_138_" class="st0" d="M554.2,297c0-3.8-3-6.8-6.8-6.8h-23.4c-3.8,0-6.8,3-6.8,6.8c0,3.8,3,6.8,6.8,6.8h23.4
			C551.2,303.8,554.2,300.8,554.2,297z"/>
		<path id="XMLID_137_" class="st0" d="M512.7,297c0-3.8-3-6.8-6.8-6.8h-2c-3.8,0-6.8,3-6.8,6.8c0,3.8,3,6.8,6.8,6.8h2
			C509.6,303.8,512.7,300.8,512.7,297z"/>
		<path id="XMLID_136_" class="st0" d="M556,272.3l-20.2-11.7c-3.3-1.9-7.4-0.8-9.3,2.5c-1.9,3.3-0.8,7.4,2.5,9.3l20.2,11.7
			c1.1,0.6,2.2,0.9,3.4,0.9c2.4,0,4.6-1.2,5.9-3.4C560.4,278.4,559.2,274.2,556,272.3z"/>
		<path id="XMLID_135_" class="st0" d="M511.4,262.3l1.8,1c1.1,0.6,2.2,0.9,3.4,0.9c2.4,0,4.6-1.2,5.9-3.4c1.9-3.3,0.8-7.4-2.5-9.3
			l-1.8-1c-3.3-1.9-7.4-0.8-9.3,2.5C507,256.3,508.2,260.4,511.4,262.3z"/>
		<path id="XMLID_134_" class="st0" d="M549.2,309.9l-20.2,11.7c-3.3,1.9-4.4,6-2.5,9.3c1.3,2.2,3.6,3.4,5.9,3.4
			c1.2,0,2.3-0.3,3.4-0.9l20.2-11.7c3.3-1.9,4.4-6,2.5-9.3C556.6,309.2,552.4,308.1,549.2,309.9z"/>
		<path id="XMLID_133_" class="st0" d="M513.2,330.7l-1.8,1c-3.3,1.9-4.4,6-2.5,9.3c1.3,2.2,3.5,3.4,5.9,3.4c1.2,0,2.3-0.3,3.4-0.9
			l1.8-1c3.3-1.9,4.4-6,2.5-9.3C520.6,330,516.4,328.8,513.2,330.7z"/>
	</g>
</g>
<g id="XMLID_37365_">
	<g id="XMLID_117_">
		<path id="XMLID_124_" class="st0" d="M739.5,457c-13.7-15.8-49.1-62.5-49.1-88.4c0-0.4,0-0.7-0.1-1.1c0.1-0.4,0.1-0.8,0.1-1.1
			v-23.6c0,0,0,0,0,0c2.3-3.7,10.3-14.2,26.4-14.3c0.1,0,0.2,0,0.3,0c0.1,0,0.2,0,0.3,0c0.1,0,0.2,0,0.3,0c0.1,0,0.2,0,0.4-0.1
			c0.1,0,0.2-0.1,0.3-0.1c0.1,0,0.2-0.1,0.3-0.1c0.1,0,0.2-0.1,0.3-0.1c0.1,0,0.2-0.1,0.3-0.1c0.1,0,0.2-0.1,0.3-0.1
			c0.1-0.1,0.2-0.1,0.3-0.2c0.1,0,0.2-0.1,0.2-0.1c0.1-0.1,0.2-0.1,0.3-0.2c0.1-0.1,0.2-0.1,0.2-0.2c0.1-0.1,0.2-0.1,0.3-0.2
			c0.1-0.1,0.1-0.1,0.2-0.2c0.1-0.1,0.2-0.2,0.3-0.2c0.1-0.1,0.1-0.1,0.2-0.2c0.1-0.1,0.2-0.2,0.2-0.3c0.1-0.1,0.1-0.2,0.2-0.2
			c0.1-0.1,0.1-0.2,0.2-0.3c0.1-0.1,0.1-0.2,0.2-0.3c0.1-0.1,0.1-0.2,0.2-0.3c0-0.1,0.1-0.2,0.1-0.3c0-0.1,0.1-0.2,0.1-0.3
			c0-0.1,0.1-0.2,0.1-0.3c0-0.1,0.1-0.2,0.1-0.3c0-0.1,0.1-0.2,0.1-0.3c0-0.1,0.1-0.2,0.1-0.3c0-0.1,0-0.2,0.1-0.4
			c0-0.1,0-0.2,0-0.3c0-0.1,0-0.3,0-0.4c0-0.1,0-0.2,0-0.3v-14.1c0-0.1,0-0.1,0-0.2c0-0.1,0-0.3,0-0.4c0-0.1,0-0.2,0-0.3
			c0-0.1,0-0.2,0-0.3c0-0.1-0.1-0.2-0.1-0.4c0-0.1,0-0.2-0.1-0.3c0-0.1-0.1-0.2-0.1-0.4c0-0.1-0.1-0.2-0.1-0.3
			c0-0.1-0.1-0.2-0.1-0.3c0-0.1-0.1-0.2-0.1-0.3c0-0.1-0.1-0.2-0.2-0.3c-0.1-0.1-0.1-0.2-0.2-0.3c-0.1-0.1-0.1-0.2-0.2-0.2
			c-0.1-0.1-0.1-0.2-0.2-0.3c-0.1-0.1-0.1-0.2-0.2-0.2c-0.1-0.1-0.2-0.2-0.2-0.3c-0.1-0.1-0.2-0.2-0.2-0.2c-0.1-0.1-0.2-0.1-0.2-0.2
			c-0.1-0.1-0.2-0.2-0.3-0.2c-0.1,0-0.1-0.1-0.2-0.1l-31.8-22.6c0,0,0,0-0.1,0c-0.1-0.1-0.2-0.2-0.4-0.2c-0.1,0-0.1-0.1-0.2-0.1
			c-0.1-0.1-0.2-0.1-0.3-0.2c-0.1,0-0.2-0.1-0.3-0.1c-0.1,0-0.2-0.1-0.3-0.1c-0.1,0-0.2-0.1-0.3-0.1c-0.1,0-0.2,0-0.3-0.1
			c-0.1,0-0.3-0.1-0.4-0.1c-0.1,0-0.2,0-0.2,0c-0.1,0-0.3-0.1-0.4-0.1c-0.1,0-0.1,0-0.2,0c-0.2,0-0.3,0-0.5,0c0,0,0,0-0.1,0h-88
			c-0.2,0-0.3,0-0.5,0c-0.2,0-0.3,0-0.5,0h-22.1c-4.3,0-7.8,3.5-7.8,7.8v22.1c0,4.3,3.5,7.8,7.8,7.8h16.3v5.9c0,0.1,0,0.2,0,0.3
			c0,0.1,0,0.2,0,0.2c0,0,0,0.1,0,0.1c0,0.1,0,0.3,0,0.4c0,0.1,0,0.2,0,0.3c0,0.1,0.1,0.3,0.1,0.4c0,0.1,0,0.2,0.1,0.3
			c0,0.1,0.1,0.3,0.1,0.4c0,0.1,0.1,0.2,0.1,0.3c0.1,0.1,0.1,0.2,0.2,0.4c0,0.1,0.1,0.2,0.1,0.2c0.1,0.1,0.1,0.2,0.2,0.4
			c0,0.1,0.1,0.1,0.1,0.2c0.1,0.1,0.2,0.3,0.3,0.4c0,0,0.1,0.1,0.1,0.2c0.1,0.1,0.2,0.3,0.3,0.4c0,0,0.1,0.1,0.1,0.1
			c0.1,0.1,0.3,0.2,0.4,0.4c0,0,0.1,0.1,0.1,0.1c0.1,0.1,0.3,0.2,0.4,0.3c0,0,0,0,0.1,0.1c0.2,0.1,0.3,0.2,0.5,0.3c0,0,0,0,0.1,0
			c0.2,0.1,0.3,0.2,0.5,0.2c0,0,0.1,0,0.1,0c0.2,0.1,0.3,0.1,0.5,0.2c0.1,0,0.1,0,0.2,0.1c0.1,0,0.3,0.1,0.4,0.1
			c0.1,0,0.1,0,0.2,0.1c0.1,0,0.3,0.1,0.4,0.1c0.1,0,0.2,0,0.3,0c0.1,0,0.2,0,0.4,0c0.1,0,0.2,0,0.3,0c0,0,0.1,0,0.1,0
			c0.1,0,0.2,0,0.3,0c0.1,0,0.2,0,0.2,0c0.2,0,0.4,0,0.6,0c-0.2,8.7-2,22.1-9.1,29.8c0,0,0,0,0,0c-0.1,0.1-0.2,0.2-0.3,0.4
			c0,0.1-0.1,0.1-0.1,0.2c-0.1,0.1-0.1,0.2-0.2,0.3c-0.4,0.6-0.7,1.3-0.9,2c0,0,0,0,0,0c0,0.1,0,0.2-0.1,0.4c0,0.1,0,0.2-0.1,0.3
			c0,0,0,0.1,0,0.1c-0.1,0.7-0.1,1.4,0.1,2.1c0,0.1,0,0.3,0.1,0.4c0,0.1,0,0.1,0,0.2c0,0.2,0.1,0.3,0.2,0.5c0,0,0,0,0,0c0,0,0,0,0,0
			c0.1,0.3,0.2,0.6,0.4,0.9c0,0,0,0.1,0.1,0.1c0.1,0.3,0.3,0.5,0.5,0.8c0,0.1,0.1,0.1,0.1,0.2c0.2,0.2,0.3,0.4,0.5,0.6
			c0,0,0.1,0.1,0.1,0.1c0,0,0,0,0,0c0.2,0.2,0.4,0.4,0.7,0.5c0.1,0,0.1,0.1,0.2,0.1c0.5,0.4,1.1,0.6,1.7,0.8c0,0,0.1,0,0.1,0
			c0.3,0.1,0.6,0.2,0.9,0.2c0.1,0,0.1,0,0.2,0c0.3,0,0.6,0.1,0.9,0.1c0,0,0,0,0.1,0c0.2,0,0.4,0,0.7,0c0,0,0.1,0,0.1,0
			c0.2,0,0.3,0,0.5-0.1c0.1,0,0.2,0,0.2,0c0.1,0,0.3-0.1,0.4-0.1c0.1,0,0.2-0.1,0.3-0.1c0,0,0.1,0,0.1,0c14.4-5.2,26.3-17.2,33-25.2
			c0.4,0.5,0.9,0.9,1.4,1.2v20.9c0,0.4,0,0.8,0.1,1.1c-0.1,0.4-0.1,0.7-0.1,1.1c0,25.9-35.4,72.6-49.1,88.4
			c-0.1,0.2-0.3,0.3-0.4,0.5c-0.1,0.1-0.1,0.1-0.1,0.2c-0.1,0.1-0.1,0.2-0.2,0.3c-0.1,0.1-0.1,0.2-0.1,0.3c0,0.1-0.1,0.2-0.1,0.3
			c0,0.1-0.1,0.2-0.1,0.3c0,0.1-0.1,0.2-0.1,0.3c0,0.1-0.1,0.2-0.1,0.3c0,0.1-0.1,0.2-0.1,0.3c0,0.1,0,0.2-0.1,0.3
			c0,0.1,0,0.2-0.1,0.3c0,0.1,0,0.2,0,0.3c0,0.1,0,0.3,0,0.4c0,0.1,0,0.2,0,0.3c0,0,0,0.1,0,0.1v68.3c0,18.9,15.3,34.2,34.2,34.2
			h92.8c18.8,0,34.2-15.3,34.2-34.2v-67.4C741.3,460.5,740.8,458.5,739.5,457z M644.3,360.5v-11.8h32.5v11.8H644.3z M679.2,335.1
			h-39.6c-0.9-1.5-2.3-3.7-4.5-6.2c-0.4-0.6-0.9-1.1-1.5-1.5c-5.6-5.6-15.1-11.8-29.8-12.4v-6.8v-16.3h79l27.2,19.3v4.3
			C692.3,317.9,682.8,329.5,679.2,335.1z M579.6,302.3v-10.5h10.5v10.5H579.6z M609.8,344.9c1.2-5.6,1.7-10.9,1.8-15
			c3.5,1,6.3,2.4,8.5,3.9C617.7,336.9,614.1,341,609.8,344.9z M727.4,529.7c0,11.3-9.2,20.6-20.6,20.6h-92.8
			c-11.3,0-20.6-9.2-20.6-20.6V464c0,0,0.1-0.1,0.1-0.1c0,0,0.1-0.1,0.1-0.1c0.1-0.1,0.2-0.3,0.4-0.4c0.1-0.1,0.1-0.1,0.2-0.2
			c0.1-0.1,0.2-0.3,0.4-0.4c0.1-0.1,0.1-0.2,0.2-0.2c0.1-0.1,0.2-0.3,0.4-0.4c0.1-0.1,0.2-0.2,0.3-0.3c0.1-0.2,0.3-0.3,0.4-0.5
			c0.1-0.1,0.1-0.2,0.2-0.3c0.1-0.2,0.3-0.4,0.5-0.6c0.1-0.1,0.2-0.2,0.3-0.3c0.2-0.2,0.3-0.4,0.5-0.7c0.1-0.1,0.1-0.2,0.2-0.2
			c0.2-0.3,0.5-0.6,0.7-0.9c0,0,0-0.1,0.1-0.1c0.3-0.3,0.5-0.7,0.8-1c0.1-0.1,0.1-0.2,0.2-0.3c0.2-0.3,0.4-0.5,0.6-0.8
			c0.1-0.1,0.2-0.3,0.3-0.4c0.2-0.2,0.4-0.5,0.6-0.7c0.1-0.2,0.2-0.3,0.4-0.5c0.2-0.2,0.4-0.5,0.5-0.7c0.1-0.2,0.3-0.3,0.4-0.5
			c0.2-0.2,0.4-0.5,0.5-0.7c0.1-0.2,0.3-0.4,0.4-0.6c0.2-0.2,0.4-0.5,0.5-0.7c0.1-0.2,0.3-0.4,0.4-0.6c0.2-0.2,0.4-0.5,0.6-0.8
			c0.1-0.2,0.3-0.4,0.4-0.6c0.2-0.3,0.4-0.5,0.6-0.8c0.1-0.2,0.3-0.4,0.4-0.6c0.2-0.3,0.4-0.6,0.6-0.8c0.1-0.2,0.3-0.4,0.4-0.6
			c0.3-0.3,0.5-0.7,0.8-1c0.1-0.1,0.2-0.3,0.3-0.4c0.4-0.5,0.7-1,1.1-1.5c0.1-0.2,0.3-0.4,0.4-0.5c0.2-0.3,0.5-0.7,0.7-1
			c0.2-0.2,0.3-0.4,0.5-0.7c0.2-0.3,0.4-0.6,0.6-0.9c0.2-0.2,0.3-0.5,0.5-0.7c0.2-0.3,0.4-0.6,0.6-0.9c0.2-0.2,0.3-0.5,0.5-0.7
			c0.2-0.3,0.4-0.6,0.6-0.9c0.2-0.3,0.4-0.5,0.5-0.8c0.2-0.3,0.4-0.6,0.6-0.9c0.2-0.3,0.4-0.5,0.5-0.8c0.2-0.3,0.4-0.6,0.6-0.9
			c0.2-0.3,0.3-0.5,0.5-0.8c0.2-0.3,0.4-0.6,0.6-0.9c0.2-0.3,0.3-0.5,0.5-0.8c0.2-0.3,0.4-0.7,0.7-1c0.2-0.2,0.3-0.5,0.5-0.7
			c0.3-0.4,0.5-0.8,0.8-1.2c0.1-0.2,0.3-0.4,0.4-0.6c0.4-0.6,0.8-1.2,1.1-1.8c0.1-0.2,0.3-0.4,0.4-0.6c0.3-0.4,0.5-0.8,0.8-1.2
			c0.2-0.3,0.3-0.5,0.5-0.8c0.2-0.4,0.4-0.7,0.7-1.1c0.2-0.3,0.3-0.5,0.5-0.8c0.2-0.3,0.4-0.7,0.6-1c0.2-0.3,0.3-0.6,0.5-0.8
			c0.2-0.3,0.4-0.7,0.6-1c0.2-0.3,0.3-0.6,0.5-0.8c0.2-0.3,0.4-0.7,0.6-1c0.2-0.3,0.3-0.6,0.5-0.9c0.2-0.3,0.4-0.7,0.6-1
			c0.2-0.3,0.3-0.6,0.5-0.9c0.2-0.4,0.4-0.7,0.6-1.1c0.2-0.3,0.3-0.6,0.5-0.8c0.2-0.4,0.4-0.7,0.6-1.1c0.1-0.3,0.3-0.5,0.4-0.8
			c0.2-0.4,0.4-0.8,0.7-1.2c0.1-0.2,0.2-0.4,0.4-0.7c0.3-0.6,0.7-1.3,1-1.9c0.1-0.2,0.2-0.4,0.3-0.5c0.2-0.5,0.5-0.9,0.7-1.4
			c0.1-0.3,0.2-0.5,0.4-0.8c0.2-0.4,0.4-0.8,0.6-1.2c0.1-0.3,0.3-0.5,0.4-0.8c0.2-0.4,0.3-0.7,0.5-1.1c0.1-0.3,0.3-0.6,0.4-0.8
			c0.2-0.4,0.3-0.7,0.5-1.1c0.1-0.3,0.3-0.6,0.4-0.9c0.2-0.4,0.3-0.7,0.5-1.1c0.1-0.3,0.2-0.6,0.4-0.9c0.2-0.4,0.3-0.7,0.4-1.1
			c0.1-0.3,0.2-0.6,0.3-0.8c0.1-0.4,0.3-0.7,0.4-1.1c0.1-0.3,0.2-0.5,0.3-0.8c0.1-0.4,0.3-0.8,0.4-1.1c0.1-0.3,0.2-0.5,0.3-0.8
			c0.2-0.4,0.3-0.8,0.4-1.3c0.1-0.2,0.1-0.4,0.2-0.6c0.2-0.6,0.4-1.2,0.6-1.9c0-0.1,0.1-0.2,0.1-0.3c0.2-0.5,0.3-1,0.5-1.6
			c0.1-0.2,0.1-0.4,0.2-0.7c0.1-0.4,0.2-0.8,0.3-1.2c0.1-0.2,0.1-0.5,0.2-0.7c0.1-0.4,0.2-0.7,0.3-1.1c0.1-0.3,0.1-0.5,0.2-0.8
			c0.1-0.3,0.2-0.7,0.2-1c0.1-0.3,0.1-0.5,0.2-0.8c0.1-0.3,0.1-0.7,0.2-1c0-0.3,0.1-0.5,0.1-0.8c0.1-0.3,0.1-0.7,0.2-1
			c0-0.3,0.1-0.5,0.1-0.8c0-0.3,0.1-0.7,0.1-1c0-0.1,0-0.1,0-0.2h9.8v139.1c0,3.8,3,6.8,6.8,6.8c3.8,0,6.8-3,6.8-6.8V374.1h9.8
			c4.1,32.9,41.6,79.4,50.3,89.8V529.7z"/>
		<path id="XMLID_123_" class="st0" d="M554.2,297c0-3.8-3-6.8-6.8-6.8h-23.4c-3.8,0-6.8,3-6.8,6.8c0,3.8,3,6.8,6.8,6.8h23.4
			C551.2,303.8,554.2,300.8,554.2,297z"/>
		<path id="XMLID_122_" class="st0" d="M512.7,297c0-3.8-3-6.8-6.8-6.8h-2c-3.8,0-6.8,3-6.8,6.8c0,3.8,3,6.8,6.8,6.8h2
			C509.6,303.8,512.7,300.8,512.7,297z"/>
		<path id="XMLID_121_" class="st0" d="M556,272.3l-20.2-11.7c-3.3-1.9-7.4-0.8-9.3,2.5c-1.9,3.3-0.8,7.4,2.5,9.3l20.2,11.7
			c1.1,0.6,2.2,0.9,3.4,0.9c2.4,0,4.6-1.2,5.9-3.4C560.4,278.4,559.2,274.2,556,272.3z"/>
		<path id="XMLID_120_" class="st0" d="M511.4,262.3l1.8,1c1.1,0.6,2.2,0.9,3.4,0.9c2.4,0,4.6-1.2,5.9-3.4c1.9-3.3,0.8-7.4-2.5-9.3
			l-1.8-1c-3.3-1.9-7.4-0.8-9.3,2.5C507,256.3,508.2,260.4,511.4,262.3z"/>
		<path id="XMLID_119_" class="st0" d="M549.2,309.9l-20.2,11.7c-3.3,1.9-4.4,6-2.5,9.3c1.3,2.2,3.6,3.4,5.9,3.4
			c1.2,0,2.3-0.3,3.4-0.9l20.2-11.7c3.3-1.9,4.4-6,2.5-9.3C556.6,309.2,552.4,308.1,549.2,309.9z"/>
		<path id="XMLID_118_" class="st0" d="M513.2,330.7l-1.8,1c-3.3,1.9-4.4,6-2.5,9.3c1.3,2.2,3.5,3.4,5.9,3.4c1.2,0,2.3-0.3,3.4-0.9
			l1.8-1c3.3-1.9,4.4-6,2.5-9.3C520.6,330,516.4,328.8,513.2,330.7z"/>
	</g>
</g>
<g id="XMLID_37378_">
	<path id="XMLID_37350_" class="st0" d="M196.6,128.5c17.1,0,27.6,10.5,28,25.4c0,14.5-10.4,25.2-28.3,25.2c-16.8,0-28-10.7-28-25.2
		C168.2,139,179.4,128.5,196.6,128.5 M347.5,195.8c33.1,0,56,19.3,56,66.8v101.1h-44.7v-93.9c0-20.8-12.9-35-31.1-35
		c-13.9,0-25.3,9.6-29,18.8c-1.3,3.3-1.7,7.9-1.7,12.6v97.5h-44.8V201.5h40l3.3,17.6C302.2,208.5,320.4,195.8,347.5,195.8
		 M218.6,201.5v162.2h-44.9V201.5H218.6 M196.6,117.4c-22.9,0-39.4,15.4-39.4,36.5c0,21,16.5,36.3,39.2,36.3
		c23.2,0,39.4-14.9,39.4-36.3c0-0.1,0-0.2,0-0.3C235.1,132.3,219.1,117.4,196.6,117.4L196.6,117.4z M347.5,184.7
		c-19,0-34.1,5.4-45,12.5c-1.7-4-5.7-6.8-10.2-6.8h-40c-6.1,0-11.1,5-11.1,11.1v162.2c0,6.1,5,11.1,11.1,11.1h44.8
		c6.1,0,11.1-5,11.1-11.1v-97.5c0-5.6,0.6-7.8,0.9-8.4c1.9-4.8,9.1-11.8,18.6-11.8c12.1,0,20,9.4,20,23.9v93.9
		c0,6.1,5,11.1,11.1,11.1h44.7c6.1,0,11.1-5,11.1-11.1V262.7C414.6,213.1,390.2,184.7,347.5,184.7L347.5,184.7z M218.6,190.4h-44.9
		c-6.1,0-11.1,5-11.1,11.1v162.2c0,6.1,5,11.1,11.1,11.1h44.9c6.1,0,11.1-5,11.1-11.1V201.5C229.8,195.4,224.8,190.4,218.6,190.4
		L218.6,190.4z"/>
	<path id="XMLID_37293_" class="st1" d="M446.3,423.3H125.4c-6.6,0-12-5.4-12-12V90.4c0-6.6,5.4-12,12-12h320.9c6.6,0,12,5.4,12,12
		v320.9C458.3,417.9,452.9,423.3,446.3,423.3z"/>
</g>
<g id="XMLID_37413_">
	<g id="XMLID_42_">
		<path id="XMLID_43_" class="st2" d="M381.3,417.9c0-2.6-2-4.7-4.6-4.7c-7.8-0.1-14-6.4-14-14.2c0-2.6-2-4.7-4.6-4.7
			c-2.6,0-4.7,2-4.7,4.6c-0.1,7.8-6.4,14-14.2,14c-2.6,0-4.7,2-4.7,4.6c0,2.6,2,4.7,4.6,4.7c7.8,0.1,14,6.4,14,14.2
			c0,2.6,2,4.7,4.6,4.7c2.6,0,4.7-2,4.7-4.6c0.1-7.8,6.4-14,14.2-14C379.2,422.5,381.3,420.5,381.3,417.9z M362.7,417.8
			c-1.8,1.3-3.4,2.9-4.8,4.7c-1.3-1.8-2.9-3.4-4.7-4.8c1.8-1.3,3.4-2.9,4.8-4.7C359.3,414.8,360.9,416.4,362.7,417.8z"/>
	</g>
</g>
<g id="XMLID_37405_">
	<g id="XMLID_37_">
		<path id="XMLID_38_" class="st2" d="M137,132.2c0-4.2-3.4-7.6-7.6-7.7c-12.7-0.1-22.9-10.5-22.8-23.2c0-4.2-3.4-7.6-7.6-7.7
			c-4.2,0-7.6,3.4-7.7,7.6c-0.1,12.7-10.5,22.9-23.2,22.8c-4.2,0-7.6,3.4-7.7,7.6c0,4.2,3.4,7.6,7.6,7.7
			c12.7,0.1,22.9,10.5,22.8,23.2c0,4.2,3.4,7.6,7.6,7.7s7.6-3.4,7.7-7.6c0.1-12.7,10.5-22.9,23.2-22.8
			C133.5,139.8,137,136.4,137,132.2z M106.5,131.9c-3,2.2-5.6,4.8-7.8,7.7c-2.2-3-4.8-5.6-7.7-7.8c3-2.2,5.6-4.8,7.8-7.7
			C101,127.1,103.6,129.7,106.5,131.9z"/>
	</g>
</g>
<g id="XMLID_37406_">
	<g id="XMLID_32_">
		<path id="XMLID_33_" class="st2" d="M431.6,65.9c0-3.2-2.5-5.8-5.7-5.8c-9.7-0.1-17.4-8-17.4-17.6c0-3.2-2.5-5.8-5.7-5.8
			c-3.2,0-5.8,2.5-5.8,5.7c-0.1,9.7-8,17.4-17.6,17.4c-3.2,0-5.8,2.5-5.8,5.7c0,3.2,2.5,5.8,5.7,5.8c9.7,0.1,17.4,8,17.4,17.6
			c0,3.2,2.5,5.8,5.7,5.8c3.2,0,5.8-2.5,5.8-5.7c0.1-9.7,8-17.4,17.6-17.4C429,71.6,431.6,69.1,431.6,65.9z M408.4,65.7
			c-2.2,1.7-4.2,3.6-5.9,5.8c-1.7-2.2-3.6-4.2-5.9-5.9c2.2-1.7,4.2-3.6,5.9-5.8C404.2,62,406.2,64,408.4,65.7z"/>
	</g>
</g>
</svg>
